<svg width="50" height="50" viewBox="0 0 50 50" fill="none" xmlns="http://www.w3.org/2000/svg">
<g clip-path="url(#clip0_29_63)">
<path d="M39.2813 1.79374C39.2813 1.11528 38.8885 0.472528 38.2815 0.186862C37.6388 -0.134513 36.9246 -0.0273883 36.389 0.401111L20.5702 13.0061L39.2813 31.7173V1.79374ZM49.4725 46.9505L3.05169 0.529661C2.35538 -0.166651 1.22343 -0.166651 0.527117 0.529661C-0.169195 1.22597 -0.169195 2.35793 0.527117 3.05424L11.761 14.2916H10.7147C9.60774 14.2916 8.64361 14.7916 8.00086 15.5771C7.46524 16.1842 7.14387 17.0055 7.14387 17.8625V32.1458C7.14387 34.1098 8.75074 35.7166 10.7147 35.7166H18.999L36.389 49.6072C36.7103 49.8571 37.1031 50 37.4959 50C37.7459 50 38.0315 49.9285 38.2815 49.8214C38.8885 49.5357 39.2813 48.893 39.2813 48.2145V41.812L46.9443 49.475C47.2943 49.825 47.7513 50 48.2084 50C48.6655 50 49.1225 49.825 49.4725 49.4786C50.1688 48.7787 50.1688 47.6503 49.4725 46.9505Z" fill="black"/>
</g>
<defs>
<clipPath id="clip0_29_63">
<rect width="50" height="50" fill="white"/>
</clipPath>
</defs>
</svg>
