<svg width="50" height="50" viewBox="0 0 50 50" fill="none" xmlns="http://www.w3.org/2000/svg">
<g clip-path="url(#clip0_29_59)">
<path d="M25.015 40.5861C25.0152 41.0172 24.8925 41.4394 24.6613 41.8033C24.4301 42.1672 24.1 42.4576 23.7097 42.6407C23.3196 42.8242 22.8854 42.8927 22.4577 42.8384C22.0301 42.7841 21.6268 42.609 21.2951 42.3338L8.88186 32.0477H2.27058C1.97241 32.0478 1.67713 31.9892 1.40162 31.8752C1.12611 31.7611 0.875776 31.594 0.664912 31.3831C0.454048 31.1723 0.286793 30.922 0.172704 30.6465C0.0586154 30.3711 -7.05762e-05 30.0758 6.36957e-08 29.7776V20.7313C4.68347e-08 20.1291 0.239204 19.5515 0.665004 19.1256C1.0908 18.6997 1.66833 18.4604 2.27058 18.4602H8.88239L21.2956 8.17409C21.6273 7.89862 22.0306 7.72352 22.4583 7.66935C22.8861 7.61519 23.3204 7.6842 23.7102 7.8683C24.1004 8.05148 24.4304 8.34198 24.6616 8.70581C24.8927 9.06965 25.0155 9.49178 25.0156 9.92284L25.015 40.5861ZM33.7411 37.0381C33.4162 37.0617 33.0901 37.0151 32.7849 36.9014C32.4798 36.7877 32.2026 36.6096 31.9724 36.3792L31.6688 36.0745C31.2834 35.6898 31.0492 35.1794 31.0089 34.6363C30.9687 34.0933 31.125 33.5539 31.4495 33.1166C33.1424 30.8458 34.0539 28.0876 34.0474 25.2553C34.0474 22.1888 33.0284 19.3126 31.1002 16.9372C30.7459 16.5015 30.5657 15.9498 30.5946 15.3889C30.6235 14.828 30.8594 14.2978 31.2566 13.9008L31.5597 13.5971C32.0133 13.1436 32.6211 12.8964 33.2789 12.9356C33.5958 12.9515 33.906 13.0336 34.1893 13.1766C34.4726 13.3196 34.7229 13.5203 34.9239 13.7659C37.5986 17.0387 39.0115 21.0124 39.0115 25.2558C39.0115 29.208 37.762 32.9699 35.3974 36.1331C35.2023 36.3938 34.9534 36.6096 34.6676 36.7657C34.3819 36.9219 34.0659 37.0148 33.7411 37.0381ZM43.1286 44.0551C42.9256 44.295 42.6751 44.4902 42.3929 44.6284C42.1107 44.7666 41.8029 44.8448 41.4889 44.858C41.175 44.8712 40.8617 44.8192 40.5688 44.7053C40.276 44.5913 40.0099 44.4179 39.7875 44.1959L39.4892 43.8977C39.0874 43.4957 38.851 42.9577 38.8265 42.3899C38.802 41.822 38.9913 41.2657 39.357 40.8306C43.0221 36.4678 45.0329 30.9532 45.0364 25.2553C45.0389 19.345 42.8758 13.6386 38.9561 9.21506C38.5733 8.78255 38.3696 8.22041 38.3866 7.64305C38.4036 7.06568 38.6399 6.51648 39.0475 6.1072L39.3452 5.80893C39.5617 5.58633 39.8227 5.41184 40.1111 5.29683C40.3996 5.18183 40.709 5.12889 41.0193 5.14146C41.3288 5.15043 41.6332 5.22262 41.9138 5.35358C42.1944 5.48454 42.4452 5.6715 42.6509 5.90298C47.3887 11.2356 50.0038 18.122 50 25.2553C49.9982 32.1361 47.5644 38.7949 43.1286 44.0551Z" fill="black"/>
</g>
<defs>
<clipPath id="clip0_29_59">
<rect width="50" height="50" fill="white"/>
</clipPath>
</defs>
</svg>
